<svg width="20" height="20" viewBox="0 0 20 20" xmlns="http://www.w3.org/2000/svg">
<path d="M10 1.66667C9.07953 1.66667 8.33334 2.41286 8.33334 3.33334V3.65834C6.00376 4.29638 4.16667 6.36784 4.16667 8.86667V12.5L2.5 15V15.8333H17.5V15L15.8333 12.5V8.86667C15.8333 6.36784 13.9962 4.29638 11.6667 3.65834V3.33334C11.6667 2.41286 10.9205 1.66667 10 1.66667ZM10 4.16667C12.1631 4.16667 13.3333 6.11384 13.3333 8.13334V13.3333H6.66667V8.13334C6.66667 6.11384 7.83686 4.16667 10 4.16667Z" />
<path d="M8.33334 17.5C8.33334 18.4205 9.07953 19.1667 10 19.1667C10.9205 19.1667 11.6667 18.4205 11.6667 17.5H8.33334Z" />
</svg>
